<?xml version="1.0" encoding="UTF-8" standalone="no"?><!-- Generator: Gravit.io --><svg xmlns="http://www.w3.org/2000/svg" xmlns:xlink="http://www.w3.org/1999/xlink" style="isolation:isolate" viewBox="0 0 32 32" width="32pt" height="32pt"><defs><clipPath id="_clipPath_N8nHOjxChejA1tUQtQPrOWJUuMaiY0on"><rect width="32" height="32"/></clipPath></defs><g clip-path="url(#_clipPath_N8nHOjxChejA1tUQtQPrOWJUuMaiY0on)"><g><g><mask id="_mask_ENmGehMU1vnz72Y85QjScPSkZ6AzUqBS"><path d=" M 28.444 10.667 L 26.667 12.444 L 26.667 23.54 C 26.667 24.284 27.271 24.889 28.016 24.889 L 30.222 24.889 L 30.222 12.444 L 28.444 10.667 Z " fill="white" stroke="none"/></mask><path d=" M 28.444 10.667 L 26.667 12.444 L 26.667 23.54 C 26.667 24.284 27.271 24.889 28.016 24.889 L 30.222 24.889 L 30.222 12.444 L 28.444 10.667 Z " fill="none" mask="url(#_mask_ENmGehMU1vnz72Y85QjScPSkZ6AzUqBS)" vector-effect="non-scaling-stroke" stroke-width="2" stroke="rgb(0,0,0)" stroke-linejoin="miter" stroke-linecap="square" stroke-miterlimit="3"/><path d=" M 28.444 10.667 L 26.667 12.444 L 26.667 23.54 C 26.667 24.284 27.271 24.889 28.016 24.889 L 30.222 24.889 L 30.222 12.444 L 28.444 10.667 Z " fill="none"/><mask id="_mask_VY6MQ5Re2QLtBaHk9ED7eowPLFcnUCJ3"><path d=" M 1.778 12.444 L 3.556 10.667 L 5.333 12.444 L 5.333 30.651 C 5.333 31.395 4.729 32 3.984 32 L 1.778 32 L 1.778 12.444 Z " fill="white" stroke="none"/></mask><path d=" M 1.778 12.444 L 3.556 10.667 L 5.333 12.444 L 5.333 30.651 C 5.333 31.395 4.729 32 3.984 32 L 1.778 32 L 1.778 12.444 Z " fill="none" mask="url(#_mask_VY6MQ5Re2QLtBaHk9ED7eowPLFcnUCJ3)" vector-effect="non-scaling-stroke" stroke-width="2" stroke="rgb(0,0,0)" stroke-linejoin="miter" stroke-linecap="square" stroke-miterlimit="3"/><path d=" M 1.778 12.444 L 3.556 10.667 L 5.333 12.444 L 5.333 30.651 C 5.333 31.395 4.729 32 3.984 32 L 1.778 32 L 1.778 12.444 Z " fill="none"/><path d=" M 0.477 13.745 L 3.556 10.667 L 3.556 30.651 C 3.556 31.395 2.951 32 2.206 32 L 0 32 L 0 14.897 C 0 14.525 0.214 14.008 0.477 13.745 Z " fill="rgb(0,0,0)"/><path d=" M 12.444 3.556 L 16 0 L 16 32 L 13.794 32 C 13.049 32 12.444 31.395 12.444 30.651 L 12.444 3.556 Z " fill="rgb(0,0,0)"/><mask id="_mask_B6giSzdMENkeZem25HBXpydzkpBDYvYn"><path d=" M 16 0 L 19.556 3.556 L 19.556 29.12 L 16 29.12 L 16 0 Z " fill="white" stroke="none"/></mask><path d=" M 16 0 L 19.556 3.556 L 19.556 29.12 L 16 29.12 L 16 0 Z " fill="none" mask="url(#_mask_B6giSzdMENkeZem25HBXpydzkpBDYvYn)" vector-effect="non-scaling-stroke" stroke-width="2" stroke="rgb(0,0,0)" stroke-linejoin="miter" stroke-linecap="square" stroke-miterlimit="3"/><path d=" M 16 0 L 19.556 3.556 L 19.556 29.12 L 16 29.12 L 16 0 Z " fill="none"/><path d=" M 16 28.444 L 32 28.444 L 32 30.569 C 32 31.359 31.359 32 30.569 32 L 16 32 C 16 32 16 32 16 32 L 16 28.444 C 16 28.444 16 28.444 16 28.444 Z " fill="rgb(0,0,0)"/><path d=" M 28.444 10.667 L 31.523 13.745 C 31.786 14.008 32 14.525 32 14.897 L 32 24.889 L 29.794 24.889 C 29.049 24.889 28.444 24.284 28.444 23.54 L 28.444 10.667 Z " fill="rgb(0,0,0)"/></g></g></g></svg>