<?xml version="1.0" encoding="UTF-8" standalone="no"?><!-- Generator: Gravit.io --><svg xmlns="http://www.w3.org/2000/svg" xmlns:xlink="http://www.w3.org/1999/xlink" style="isolation:isolate" viewBox="0 0 42 42" width="42pt" height="42pt"><defs><clipPath id="_clipPath_Mm8FkQQtU9bBwqO4DQgWswR8nslunv27"><rect width="42" height="42"/></clipPath></defs><g clip-path="url(#_clipPath_Mm8FkQQtU9bBwqO4DQgWswR8nslunv27)"><g><g><mask id="_mask_kckN3dC41zbXhm4rtyO0AOT1pyMlR0Yi"><path d=" M 37.333 14 L 35 16.333 L 35 30.896 C 35 31.873 35.794 32.667 36.771 32.667 L 39.667 32.667 L 39.667 16.333 L 37.333 14 Z " fill="white" stroke="none"/></mask><path d=" M 37.333 14 L 35 16.333 L 35 30.896 C 35 31.873 35.794 32.667 36.771 32.667 L 39.667 32.667 L 39.667 16.333 L 37.333 14 Z " fill="none" mask="url(#_mask_kckN3dC41zbXhm4rtyO0AOT1pyMlR0Yi)" vector-effect="non-scaling-stroke" stroke-width="2" stroke="rgb(0,0,0)" stroke-linejoin="miter" stroke-linecap="square" stroke-miterlimit="3"/><path d=" M 37.333 14 L 35 16.333 L 35 30.896 C 35 31.873 35.794 32.667 36.771 32.667 L 39.667 32.667 L 39.667 16.333 L 37.333 14 Z " fill="none"/><mask id="_mask_P0QGhMDO6kIvqCLyg2Mkuaxsliwdz4WJ"><path d=" M 2.333 16.333 L 4.667 14 L 7 16.333 L 7 40.229 C 7 41.206 6.206 42 5.229 42 L 2.333 42 L 2.333 16.333 Z " fill="white" stroke="none"/></mask><path d=" M 2.333 16.333 L 4.667 14 L 7 16.333 L 7 40.229 C 7 41.206 6.206 42 5.229 42 L 2.333 42 L 2.333 16.333 Z " fill="none" mask="url(#_mask_P0QGhMDO6kIvqCLyg2Mkuaxsliwdz4WJ)" vector-effect="non-scaling-stroke" stroke-width="2" stroke="rgb(0,0,0)" stroke-linejoin="miter" stroke-linecap="square" stroke-miterlimit="3"/><path d=" M 2.333 16.333 L 4.667 14 L 7 16.333 L 7 40.229 C 7 41.206 6.206 42 5.229 42 L 2.333 42 L 2.333 16.333 Z " fill="none"/><path d=" M 0.626 18.041 L 4.667 14 L 4.667 40.229 C 4.667 41.206 3.873 42 2.896 42 L 0 42 L 0 19.552 C 0 19.063 0.281 18.386 0.626 18.041 Z " fill="rgb(0,0,0)"/><path d=" M 16.333 4.667 L 21 0 L 21 42 L 18.104 42 C 17.127 42 16.333 41.206 16.333 40.229 L 16.333 4.667 Z " fill="rgb(0,0,0)"/><mask id="_mask_KP2a86OLtIALjNljxyStQnTjBmmwFiwV"><path d=" M 21 0 L 25.667 4.667 L 25.667 38.22 L 21 38.22 L 21 0 Z " fill="white" stroke="none"/></mask><path d=" M 21 0 L 25.667 4.667 L 25.667 38.22 L 21 38.22 L 21 0 Z " fill="none" mask="url(#_mask_KP2a86OLtIALjNljxyStQnTjBmmwFiwV)" vector-effect="non-scaling-stroke" stroke-width="2" stroke="rgb(0,0,0)" stroke-linejoin="miter" stroke-linecap="square" stroke-miterlimit="3"/><path d=" M 21 0 L 25.667 4.667 L 25.667 38.22 L 21 38.22 L 21 0 Z " fill="none"/><path d=" M 21 37.333 L 42 37.333 L 42 40.122 C 42 41.158 41.158 42 40.122 42 L 21 42 C 21 42 21 42 21 42 L 21 37.333 C 21 37.333 21 37.333 21 37.333 Z " fill="rgb(0,0,0)"/><path d=" M 37.333 14 L 41.374 18.041 C 41.719 18.386 42 19.063 42 19.552 L 42 32.667 L 39.104 32.667 C 38.127 32.667 37.333 31.873 37.333 30.896 L 37.333 14 Z " fill="rgb(0,0,0)"/></g></g></g></svg>