<svg xmlns="http://www.w3.org/2000/svg" xmlns:xlink="http://www.w3.org/1999/xlink" version="1.1" x="0px" y="0px" viewBox="0 0 100 125" style="fill: #3738ad;" enable-background="new 0 0 100 100" xml:space="preserve"><path d="M79.738,29.866c-0.16-0.042-0.325-0.07-0.499-0.07h-0.38h-0.284v-4.247h0.664c1.104,0,2-0.896,2-2s-0.896-2-2-2h-0.664  v-0.846c0-1.104-0.896-2-2-2s-2,0.896-2,2v0.846h-0.284c-3.376,0-6.123,2.748-6.123,6.125c0,3.078,2.287,5.626,5.249,6.052  c0.16,0.041,0.324,0.07,0.497,0.07h0.377h0.284v4.249h-0.661c-1.104,0-2,0.896-2,2s0.896,2,2,2h0.661v0.848c0,1.104,0.896,2,2,2  s2-0.896,2-2v-0.848h0.284c3.378,0,6.126-2.747,6.126-6.124C84.985,32.842,82.7,30.294,79.738,29.866z M74.291,29.795  c-1.171,0-2.123-0.952-2.123-2.122c0-1.171,0.952-2.125,2.123-2.125h0.284v4.247H74.291z M78.859,38.044h-0.284v-4.249h0.284  c1.172,0,2.126,0.953,2.126,2.125S80.031,38.044,78.859,38.044z"/><path d="M76.575,12.586c-10.593,0-19.21,8.617-19.21,19.209c0,10.593,8.617,19.211,19.21,19.211s19.211-8.618,19.211-19.211  C95.786,21.203,87.168,12.586,76.575,12.586z M76.575,47.007c-8.387,0-15.21-6.824-15.21-15.211c0-8.387,6.823-15.209,15.21-15.209  c8.388,0,15.211,6.823,15.211,15.209C91.786,40.183,84.963,47.007,76.575,47.007z"/><path d="M13.714,44.164h-7.5c-1.104,0-2,0.896-2,2v39.25c0,1.104,0.896,2,2,2h7.5c1.104,0,2-0.896,2-2v-39.25  C15.714,45.06,14.818,44.164,13.714,44.164z M11.714,83.414h-3.5v-35.25h3.5V83.414z"/><path d="M83.714,58.664h-7.5c-1.104,0-2,0.896-2,2v24.75c0,1.104,0.896,2,2,2h7.5c1.104,0,2-0.896,2-2v-24.75  C85.714,59.56,84.818,58.664,83.714,58.664z M81.714,83.414h-3.5v-20.75h3.5V83.414z"/><path d="M66.214,51.914h-7.5c-1.104,0-2,0.896-2,2v31.5c0,1.104,0.896,2,2,2h7.5c1.104,0,2-0.896,2-2v-31.5  C68.214,52.81,67.318,51.914,66.214,51.914z M64.214,83.414h-3.5v-27.5h3.5V83.414z"/><path d="M48.714,38.414h-7.5c-1.104,0-2,0.896-2,2v45c0,1.104,0.896,2,2,2h7.5c1.104,0,2-0.896,2-2v-45  C50.714,39.31,49.818,38.414,48.714,38.414z M46.714,83.414h-3.5v-41h3.5V83.414z"/><path d="M31.214,17.903h-7.5c-1.104,0-2,0.896-2,2v65.511c0,1.104,0.896,2,2,2h7.5c1.104,0,2-0.896,2-2V19.903  C33.214,18.798,32.318,17.903,31.214,17.903z M29.214,83.414h-3.5V21.903h3.5V83.414z"/></svg>