<svg xmlns="http://www.w3.org/2000/svg" xmlns:xlink="http://www.w3.org/1999/xlink" version="1.1" x="0px" y="0px" viewBox="0 0 66 82.5" enable-background="new 0 0 66 66" xml:space="preserve" style="fill: #2f80ed"><g><g><path d="M62.9,50.2L62.9,50.2l-0.1-7.5c0-0.2-0.1-0.4-0.2-0.6l-8.8-11c-0.2-0.2-0.5-0.4-0.8-0.4h-8.2v-5.6c0-0.6-0.4-1-1-1h-4.9    c0.2-1.1,0.4-2.2,0.4-3.4l0,0l0,0c0-9-7.3-16.4-16.4-16.4c-9,0-16.4,7.3-16.4,16.4l0,0l0,0c0,1.2,0.1,2.3,0.4,3.4H2    c-0.6,0-1,0.4-1,1V49c0,0.6,0.4,1,1,1h2.5v6.7c0,0.6,0.4,1,1,1h4.7c0.5,2.3,2.5,4.1,5,4.1c2.5,0,4.5-1.8,5-4.1h27.5    c0.5,2.3,2.5,4.1,5,4.1c2.5,0,4.5-1.8,5-4.1h5.1c1.2,0,2.1-0.9,2.1-2.1v-3.3C65,51.1,64.1,50.2,62.9,50.2z M8.6,21.6h5.5    c0.1,2.3,0.4,4.5,0.9,6.4c-1,0.6-2,1.3-2.9,2.1C10.1,27.8,8.8,24.9,8.6,21.6z M12.1,11.2c0.9,0.8,1.9,1.5,2.9,2.1    c-0.5,1.9-0.8,4.1-0.9,6.4H8.6C8.8,16.4,10.1,13.5,12.1,11.2z M37.2,19.6h-5.5c-0.1-2.3-0.4-4.5-0.9-6.4c1-0.6,2-1.3,2.9-2.1    C35.7,13.5,37,16.4,37.2,19.6z M21.9,13.2c-1.6-0.1-3.1-0.5-4.5-1c1.1-3,2.7-5.2,4.5-5.8V13.2z M21.9,15.2v4.4h-5.8    c0.1-2,0.3-3.8,0.8-5.5C18.4,14.8,20.1,15.1,21.9,15.2z M21.9,21.6V26c-1.8,0.1-3.5,0.5-5.1,1.1c-0.4-1.7-0.7-3.6-0.8-5.5H21.9z     M21.9,28v6.8c-1.8-0.6-3.4-2.7-4.5-5.8C18.8,28.5,20.3,28.1,21.9,28z M23.9,34.8V28c1.6,0.1,3.1,0.5,4.5,1    C27.3,32.1,25.7,34.3,23.9,34.8z M23.9,26v-4.4h5.8c-0.1,2-0.3,3.8-0.8,5.5C27.4,26.5,25.7,26.1,23.9,26z M23.9,19.6v-4.4    c1.8-0.1,3.5-0.5,5.1-1.1c0.4,1.7,0.7,3.6,0.8,5.5H23.9z M23.9,13.2V6.4c1.8,0.6,3.4,2.7,4.5,5.8C27,12.8,25.5,13.1,23.9,13.2z     M30.2,11.3c-0.6-1.6-1.3-3-2.2-4.1c1.6,0.6,3,1.5,4.3,2.6C31.7,10.3,31,10.8,30.2,11.3z M15.6,11.3c-0.7-0.4-1.4-0.9-2.1-1.5    c1.3-1.1,2.7-2,4.3-2.6C16.9,8.3,16.2,9.7,15.6,11.3z M15.6,30c0.6,1.6,1.3,3,2.2,4.1c-1.6-0.6-3-1.5-4.3-2.6    C14.2,30.9,14.9,30.4,15.6,30z M30.2,30c0.7,0.4,1.4,0.9,2.1,1.5c-1.3,1.1-2.7,2-4.3,2.6C28.9,32.9,29.6,31.6,30.2,30z M33.7,30.1    c-0.9-0.8-1.9-1.5-2.9-2.1c0.5-1.9,0.8-4.1,0.9-6.4h5.5C37,24.9,35.7,27.8,33.7,30.1z M3,44.9h2.6c0.6,0,1-0.4,1-1    c0-0.6-0.4-1-1-1H3V26.1h4.5c2.3,6.5,8.4,10.9,15.4,11c0,0,0,0,0,0s0,0,0,0c6.9,0,13.1-4.4,15.4-11h4.5c0,1.7,0-6.2,0,16.8h-2.6    c-0.6,0-1,0.4-1,1c0,0.6,0.4,1,1,1h2.6V48H3V44.9z M6.5,50h36.3v5.7H20.3c-0.5-2.3-2.5-4.1-5-4.1c-2.5,0-4.5,1.8-5,4.1H6.5V50z     M15.3,59.8c-1.7,0-3.1-1.4-3.1-3.1c0-1.7,1.4-3.1,3.1-3.1c1.7,0,3.1,1.4,3.1,3.1C18.4,58.4,17,59.8,15.3,59.8z M52.8,59.8    c-1.7,0-3.1-1.4-3.1-3.1c0-1.7,1.4-3.1,3.1-3.1c1.7,0,3.1,1.4,3.1,3.1C55.9,58.4,54.5,59.8,52.8,59.8z M63,55.6    C63,55.6,63,55.7,63,55.6l-5.2,0.1c-0.5-2.3-2.5-4.1-5-4.1c-2.5,0-4.5,1.8-5,4.1h-3c0-5.4,0-17.8,0-23h7.8L60.8,43v8.2    c0,0.6,0.4,1,1,1h1.1c0,0,0.1,0,0.1,0.1V55.6z"/></g><g><path d="M51.7,35.4c-0.2-0.2-0.5-0.4-0.8-0.4h-2.7c-0.6,0-1,0.4-1,1v9.7c0,0.6,0.4,1,1,1h9.2c0.6,0,1-0.4,1-1v-1.5    c0-0.2-0.1-0.4-0.2-0.6L51.7,35.4z M56.4,44.7h-7.2V37h1.3l6,7.5V44.7z"/></g><g><path d="M53.3,55.7h-1c-0.6,0-1,0.4-1,1c0,0.6,0.4,1,1,1h1c0.6,0,1-0.4,1-1C54.3,56.1,53.9,55.7,53.3,55.7z"/></g><g><path d="M15.8,55.7h-1c-0.6,0-1,0.4-1,1c0,0.6,0.4,1,1,1h1c0.6,0,1-0.4,1-1C16.8,56.1,16.3,55.7,15.8,55.7z"/></g></g></svg>