<svg xmlns="http://www.w3.org/2000/svg" viewBox="0 0 64 64" width="512" height="512"><g id="Social_media_maketing" data-name="Social media maketing"><path d="M27,29h6a1,1,0,0,0,1-1V27h.764l1.789.895A1,1,0,0,0,37,28H47.5a2.5,2.5,0,0,0,2-4,2.5,2.5,0,0,0,0-3,2.5,2.5,0,0,0,0-3,2.5,2.5,0,0,0-2-4H44V11a3,3,0,0,0-3-3H39a1,1,0,0,0-1,1v3a3,3,0,0,1-3,3H34V14a1,1,0,0,0-1-1H27a1,1,0,0,0-1,1V28A1,1,0,0,0,27,29Zm8-12a5.006,5.006,0,0,0,5-5V10h1a1,1,0,0,1,1,1v4a1,1,0,0,0,1,1h4.5a.5.5,0,0,1,0,1,1,1,0,0,0,0,2,.5.5,0,0,1,0,1,1,1,0,0,0,0,2,.5.5,0,0,1,0,1,1,1,0,0,0,0,2,.5.5,0,0,1,0,1H37.236l-1.789-.895A1,1,0,0,0,35,25H34V17Zm-7-2h4V27H28Z"/><path d="M57,6H53.9A5.009,5.009,0,0,0,49,2H27a5.009,5.009,0,0,0-4.9,4H7a5.006,5.006,0,0,0-5,5V59a3,3,0,0,0,3,3H49a1,1,0,0,0,1-1V59a5.006,5.006,0,0,0-5-5H40V50H57a5.006,5.006,0,0,0,5-5V11A5.006,5.006,0,0,0,57,6ZM22,54V50h2v4ZM19,33a1,1,0,0,1,1,1v3L4,37V34a1,1,0,0,1,1-1ZM4,39l16,0V54H4Zm18-5a3,3,0,0,0-3-3H8V12H22v6.546l-7.658,6.7A1,1,0,0,0,15,27h7v2a5.006,5.006,0,0,0,5,5H49a5.006,5.006,0,0,0,5-5V12h2V40H22ZM27,4H49a3,3,0,0,1,3,3V29a3,3,0,0,1-3,3H27a3,3,0,0,1-3-3V26a1,1,0,0,0-1-1H17.661l6-5.248A1,1,0,0,0,24,19V7A3,3,0,0,1,27,4ZM7,8H22v2H7a1,1,0,0,0-1,1V31H5a2.966,2.966,0,0,0-1,.184V11A3,3,0,0,1,7,8ZM5,60a1,1,0,0,1-1-1V56H20v3a1,1,0,0,1-1,1Zm43-1v1H21.816A2.966,2.966,0,0,0,22,59V56H45A3,3,0,0,1,48,59ZM38,54H26V50H38Zm22-9a3,3,0,0,1-3,3H22V42H57a1,1,0,0,0,1-1V11a1,1,0,0,0-1-1H54V8h3a3,3,0,0,1,3,3Z"/><path d="M35,45a3,3,0,1,0-3,3A3,3,0,0,0,35,45Zm-3,1a1,1,0,1,1,1-1A1,1,0,0,1,32,46Z"/><path d="M13,57H11a1,1,0,0,0,0,2h2a1,1,0,0,0,0-2Z"/><path d="M11,36h2a1,1,0,0,0,0-2H11a1,1,0,0,0,0,2Z"/></g></svg>
