<svg xmlns="http://www.w3.org/2000/svg" xmlns:xlink="http://www.w3.org/1999/xlink" version="1.1" x="0px" y="0px" viewBox="0 0 500 625" style="enable-background:new 0 0 500 500; fill: #37d5b2;" xml:space="preserve"><g><path d="M470,175H30c-5.5,0-10,4.5-10,10v230.7c0,5.5,4.5,10,10,10h440c5.5,0,10-4.5,10-10V185C480,179.5,475.5,175,470,175z    M460,405.7H40V195h420V405.7z"/><path d="M79.2,345.1c0.9-0.1,1.7-0.1,2.5-0.1c14.5,0,26.3,11.8,26.3,26.3c0,1.8-0.2,3.7-0.6,5.5c-0.6,3,0.1,6,2,8.4   c1.9,2.3,4.8,3.7,7.8,3.7h266.6c3,0,5.9-1.4,7.8-3.7c1.9-2.3,2.6-5.4,2-8.4c-0.4-1.8-0.6-3.7-0.6-5.5c0-14.5,11.8-26.3,26.3-26.3   c0.5,0,1.1,0,1.8,0.1c2.8,0.2,5.5-0.8,7.5-2.7c2-1.9,3.2-4.5,3.2-7.3v-74.2c0-2.8-1.1-5.4-3.2-7.3c-2-1.9-4.7-2.9-7.5-2.7   c-0.7,0-1.3,0.1-1.8,0.1c-14.5,0-26.3-11.8-26.3-26.3c0-0.6,0-1.3,0.1-2.1c0.2-2.8-0.7-5.5-2.6-7.6c-1.9-2.1-4.6-3.2-7.3-3.2H117.9   c-2.8,0-5.5,1.2-7.3,3.2c-1.9,2.1-2.8,4.8-2.6,7.6c0.1,0.8,0.1,1.5,0.1,2.1c0,14.5-11.8,26.3-26.3,26.3c-0.8,0-1.6,0-2.5-0.1   c-2.8-0.3-5.6,0.7-7.7,2.6c-2.1,1.9-3.3,4.6-3.3,7.4v74.3c0,2.8,1.2,5.5,3.3,7.4S76.4,345.4,79.2,345.1z M88.2,270.5   c20.1-2.9,36.2-18.7,39.2-38.8h246.1c3,19.7,18.6,35.4,38.2,38.7v55.2c-21.2,3.5-37.6,21.4-38.7,43.3H127.9   c-1.1-22.2-18-40.4-39.7-43.5V270.5z"/><path d="M250,354.7c30,0,54.3-24.4,54.3-54.3S280,246,250,246s-54.3,24.4-54.3,54.3S220,354.7,250,354.7z M250,266   c18.9,0,34.3,15.4,34.3,34.3c0,18.9-15.4,34.3-34.3,34.3s-34.3-15.4-34.3-34.3C215.7,281.4,231.1,266,250,266z"/><path d="M146,328.6c15.6,0,28.3-12.7,28.3-28.3S161.6,272,146,272s-28.3,12.7-28.3,28.3S130.4,328.6,146,328.6z M146,292   c4.6,0,8.3,3.7,8.3,8.3s-3.7,8.3-8.3,8.3s-8.3-3.7-8.3-8.3S141.4,292,146,292z"/><path d="M356.4,328.6c15.6,0,28.3-12.7,28.3-28.3S372,272,356.4,272s-28.3,12.7-28.3,28.3S340.8,328.6,356.4,328.6z M356.4,292   c4.6,0,8.3,3.7,8.3,8.3s-3.7,8.3-8.3,8.3s-8.3-3.7-8.3-8.3S351.8,292,356.4,292z"/><path d="M56.7,159.7h386.7c5.5,0,10-4.5,10-10s-4.5-10-10-10H56.7c-5.5,0-10,4.5-10,10S51.1,159.7,56.7,159.7z"/><path d="M86.7,127h326.7c5.5,0,10-4.5,10-10s-4.5-10-10-10H86.7c-5.5,0-10,4.5-10,10S81.1,127,86.7,127z"/><path d="M122,94.3h256c5.5,0,10-4.5,10-10s-4.5-10-10-10H122c-5.5,0-10,4.5-10,10S116.5,94.3,122,94.3z"/></g></svg>