<svg xmlns="http://www.w3.org/2000/svg" viewBox="0 0 64 80" width="512" height="512" style="fill: #2f80ed"><g id="Bungalow"><path d="M62,56H61a1,1,0,0,0,0,2h1a1,1,0,0,0,0-2Z"/><path d="M58,56H55V34h5a1,1,0,0,0,.982-1.187l-4-21A1,1,0,0,0,56,11H54V9a1,1,0,0,0-1-1H45a1,1,0,0,0-1,1v2H18a1,1,0,0,0-.982.813l-4,21A1,1,0,0,0,14,34h5V56H10V53.91a5.976,5.976,0,0,0,3.793-9.5A4.953,4.953,0,0,0,12.657,39.6,3.909,3.909,0,0,0,13,38a4,4,0,0,0-8,0,3.909,3.909,0,0,0,.343,1.6,4.955,4.955,0,0,0-1.136,4.809A5.975,5.975,0,0,0,8,53.91V56H2a1,1,0,0,0,0,2H58a1,1,0,0,0,0-2ZM5,48a3.978,3.978,0,0,1,1.077-2.709,1,1,0,0,0,.181-1.084,2.963,2.963,0,0,1,.957-3.6,1,1,0,0,0,.2-1.4A1.975,1.975,0,0,1,7,38a2,2,0,0,1,4,0,1.975,1.975,0,0,1-.414,1.2,1,1,0,0,0,.2,1.4,2.96,2.96,0,0,1,.956,3.6,1,1,0,0,0,.182,1.084A3.969,3.969,0,0,1,10,51.858V49a1,1,0,0,0-2,0v2.858A4,4,0,0,1,5,48ZM46,10h6v1H46ZM18.828,13H55.172l3.62,19H15.208ZM26,56V45h5V56Zm7,0V44a1,1,0,0,0-1-1H25a1,1,0,0,0-1,1V56H21V34H53V56Z"/><path d="M49,43H37a1,1,0,0,0-1,1v6a1,1,0,0,0,1,1H49a1,1,0,0,0,1-1V44A1,1,0,0,0,49,43ZM38,49V45h4v4Zm10,0H44V45h4Z"/><path d="M9,47a1,1,0,0,0,1-1V45a1,1,0,0,0-2,0v1A1,1,0,0,0,9,47Z"/></g></svg>
